<svg width="13" height="13" viewBox="0 0 13 15" fill="none" xmlns="http://www.w3.org/2000/svg">
<path fill-rule="evenodd" clip-rule="evenodd" d="M9.40082 14.4991C9.50442 14.4991 9.60376 14.4464 9.67702 14.3527C9.75027 14.2589 9.79142 14.1318 9.79142 13.9992V2.20768L12.249 5.35427C12.3224 5.44815 12.4219 5.50089 12.5256 5.50089C12.6293 5.50089 12.7288 5.44815 12.8021 5.35427C12.8755 5.2604 12.9167 5.13308 12.9167 5.00032C12.9167 4.86756 12.8755 4.74024 12.8021 4.64636L9.67736 0.646875C9.64108 0.600318 9.59798 0.56338 9.55053 0.538176C9.50307 0.512973 9.4522 0.5 9.40082 0.5C9.34945 0.5 9.29857 0.512973 9.25112 0.538176C9.20367 0.56338 9.16057 0.600318 9.12428 0.646875L5.99953 4.64636C5.92619 4.74024 5.88498 4.86756 5.88498 5.00032C5.88498 5.13308 5.92619 5.2604 5.99953 5.35427C6.07287 5.44815 6.17235 5.50089 6.27607 5.50089C6.37979 5.50089 6.47927 5.44815 6.55261 5.35427L9.01023 2.20768V13.9992C9.01023 14.1318 9.05138 14.2589 9.12463 14.3527C9.19788 14.4464 9.29723 14.4991 9.40082 14.4991ZM3.93251 0.500894C4.0361 0.500894 4.13545 0.553565 4.2087 0.647322C4.28195 0.741078 4.3231 0.868239 4.3231 1.00083V12.7923L6.78072 9.64573C6.85406 9.55185 6.95354 9.49911 7.05726 9.49911C7.16098 9.49911 7.26046 9.55185 7.3338 9.64573C7.40714 9.7396 7.44835 9.86692 7.44835 9.99968C7.44835 10.1324 7.40714 10.2598 7.3338 10.3536L4.20905 14.3531C4.17276 14.3997 4.12966 14.4366 4.08221 14.4618C4.03475 14.487 3.98388 14.5 3.93251 14.5C3.88113 14.5 3.83026 14.487 3.7828 14.4618C3.73535 14.4366 3.69225 14.3997 3.65596 14.3531L0.531211 10.3536C0.457868 10.2598 0.416664 10.1324 0.416664 9.99968C0.416664 9.86692 0.457868 9.7396 0.531211 9.64573C0.604554 9.55185 0.704029 9.49911 0.807752 9.49911C0.911475 9.49911 1.01095 9.55185 1.08429 9.64573L3.54191 12.7923V1.00083C3.54191 0.868239 3.58306 0.741078 3.65631 0.647322C3.72956 0.553565 3.82891 0.500894 3.93251 0.500894Z" fill="#726969"/>
</svg>
